<svg width="222" height="62" viewBox="0 0 222 62" fill="none" xmlns="http://www.w3.org/2000/svg">
  <path
    d="M53.218 5.10553H12.917C10.0634 5.10553 7.75018 7.39136 7.75018 10.2111V33.186C7.75018 36.0057 10.0634 38.2916 12.917 38.2916H53.218C56.0715 38.2916 58.3848 36.0057 58.3848 33.186V10.2111C58.3848 7.39136 56.0715 5.10553 53.218 5.10553Z"
    fill="black"/>
  <path
    d="M45.7435 19.1437H44.6544V20.1127C44.6544 20.1721 44.6057 20.2199 44.5459 20.2199C44.4852 20.2199 44.4365 20.1718 44.4365 20.1127V19.1437H43.5656V21.5118H44.4365L44.6544 21.9432H42.0397L42.2569 21.5118H43.1294V19.1437H40.9502C40.8304 19.1437 40.794 19.0692 40.8708 18.9769L42.5553 16.9416C42.6311 16.8499 42.792 16.775 42.9111 16.775H43.7826C43.9024 16.775 44.0626 16.8499 44.1381 16.9416L45.8233 18.9769C45.8997 19.0692 45.864 19.1437 45.7435 19.1437ZM19.8227 18.0052C21.1594 17.7991 24.3773 17.3562 27.3635 17.3562C30.3464 17.3562 33.5669 17.7991 34.9047 18.0056V21.1457H36.4514V16.716L35.8142 16.6035C35.6346 16.5719 31.3717 15.8271 27.3639 15.8271C23.356 15.8271 19.0934 16.5719 18.9142 16.6035L18.2767 16.716V21.3043H19.8234V18.0052H19.8227ZM26.9997 21.1361H21.7569C21.7569 20.526 22.9307 20.0313 24.3783 20.0313C25.8258 20.0313 26.9997 20.526 26.9997 21.1361ZM32.9328 21.1361H27.6903C27.6903 20.526 28.8638 20.0313 30.3117 20.0313C31.7593 20.0313 32.9328 20.526 32.9328 21.1361ZM36.8773 22.6242C36.698 22.4798 36.4621 22.4198 36.2351 22.4663C36.2224 22.4686 34.921 22.7212 33.1651 22.7212C32.1391 22.7212 31.1692 22.6348 30.282 22.4649C29.1886 22.2555 27.5801 22.1493 25.5014 22.1493C22.0152 22.1493 18.3131 22.4508 18.2763 22.4537C17.8755 22.4864 17.5671 22.8175 17.5671 23.2153V26.5902C17.5671 27.0121 17.9135 27.3547 18.3404 27.3547H18.4372L18.7273 28.5008H19.5003L19.7903 27.3547H35.0001L35.2905 28.5008H36.0639L36.3536 27.3547H36.3863C36.8132 27.3547 37.1593 27.0121 37.1593 26.5902V23.2153C37.16 22.9864 37.0568 22.769 36.8773 22.6242ZM34.9044 25.6671H19.8871V24.7436H34.9044V25.6671ZM47.7067 23.5226H47.1086L46.8249 28.3831H46.2318L45.9481 25.8927H40.7456L40.4619 28.3831H39.8695L39.5858 23.5226H38.9877V22.3762H47.7064L47.7067 23.5226ZM45.9481 23.5226H43.6221V24.1612H42.9148V23.5226H40.7456V24.7466H45.9481V23.5226Z"
    fill="white"/>
  <path
    d="M66.135 25.2397C66.135 29.5004 69.7792 33.1839 74.4527 33.1839C79.0984 33.1839 82.7426 29.5004 82.7426 25.2397C82.7426 21.0064 79.0984 17.3229 74.4527 17.3229C69.7792 17.3229 66.135 21.0064 66.135 25.2397ZM78.2917 25.2397C78.2917 27.3013 76.6782 29.0331 74.4527 29.0331C72.2272 29.0331 70.5859 27.2738 70.5859 25.2397C70.5859 23.233 72.2272 21.4737 74.4527 21.4737C76.6782 21.4737 78.2917 23.2055 78.2917 25.2397ZM86.2936 17.4604C86.2936 22.6283 86.2658 27.7961 86.2658 32.9915V33.2389H90.7724V25.1022C90.7724 23.123 92.525 21.3913 94.667 21.3913C96.7256 21.3913 98.339 22.9581 98.5616 24.8273C98.5894 25.1022 98.5616 25.4046 98.5616 25.6795L98.5894 27.6862V33.1839L103.096 33.2389V24.9648C103.096 22.9581 102.067 20.9789 100.592 19.577C98.9789 18.0376 97.0037 17.213 94.667 17.213C93.2761 17.213 91.9408 17.5154 90.7168 18.1201V17.2954H86.2936V17.4604ZM106.619 33.2664H111.126L111.07 11.7702H106.647V12.0451L106.619 33.2664ZM114.649 34.0086C114.649 38.2968 118.349 42.0078 123.05 42.0078C127.863 42.0078 131.479 38.3793 131.479 34.0086V17.2954H126.973V25.2947C126.973 27.3013 125.22 29.0331 123.05 29.0331C120.908 29.0331 119.573 27.4937 119.183 25.5695L119.156 17.2954H114.649V25.4596C114.649 29.6379 118.599 33.2114 123.05 33.2114C124.469 33.2114 125.804 32.909 127 32.3043L126.973 34.0086C126.917 36.1252 125.387 37.8295 123.05 37.8295C120.853 37.8295 119.156 36.0152 119.156 34.0086V33.7612H114.649V34.0086ZM135.03 17.4604C135.03 22.6283 135.002 27.7961 135.002 32.9915V33.2389H139.509V25.1022C139.509 23.123 141.262 21.3913 143.404 21.3913C145.462 21.3913 147.076 22.9581 147.298 24.8273C147.326 25.1022 147.298 25.4046 147.298 25.6795L147.326 27.6862V33.1839L151.833 33.2389V24.9648C151.833 22.9581 150.803 20.9789 149.329 19.577C147.715 18.0376 145.74 17.213 143.404 17.213C142.013 17.213 140.677 17.5154 139.453 18.1201V17.2954H135.03V17.4604ZM155.356 14.2717C155.356 15.5637 156.413 16.7182 157.887 16.7182C159.334 16.7182 160.447 15.5637 160.447 14.2717C160.447 13.0072 159.334 11.7702 157.887 11.7702C156.413 11.7702 155.356 13.0072 155.356 14.2717ZM155.634 17.3229V33.2389H160.141V17.3229H155.634ZM163.97 34.0361C163.97 38.3243 167.67 42.0353 172.371 42.0353C177.184 42.0353 180.8 38.4068 180.8 34.0361V25.2122C180.8 24.9923 180.772 24.7724 180.772 24.5525V17.268H176.266V18.0651C175.069 17.4879 173.762 17.213 172.371 17.213C167.67 17.213 163.97 20.924 163.97 25.2122C163.97 29.5279 167.67 33.2389 172.371 33.2389C173.79 33.2389 175.125 32.9365 176.321 32.3318L176.293 34.0361C176.238 36.1527 174.708 37.857 172.371 37.857C170.173 37.857 168.476 36.0427 168.476 34.0361V33.7887H163.97V34.0361ZM175.153 27.9336C174.402 28.6483 173.484 29.0606 172.371 29.0606C170.173 29.0606 168.476 27.2464 168.476 25.2122C168.476 23.2055 170.173 21.3913 172.371 21.3913C173.484 21.3913 174.402 21.7761 175.153 22.4908C175.709 23.0406 176.266 24.0027 176.266 24.7449V25.707C176.266 26.4217 175.709 27.3838 175.153 27.9336ZM184.351 12.0451C184.351 18.9173 184.323 26.1193 184.323 32.9915V33.2389H188.83V25.1022C188.83 23.123 190.582 21.3913 192.724 21.3913C194.783 21.3913 196.396 22.9581 196.619 24.8273C196.647 25.1022 196.619 25.4046 196.619 25.6795L196.647 27.6862V33.1839L201.153 33.2389V24.9648C201.153 22.9581 200.124 20.9789 198.65 19.577C197.036 18.0376 195.061 17.213 192.724 17.213C191.333 17.213 189.998 17.5154 188.774 18.1201V11.7977H184.351V12.0451ZM207.931 21.0889V33.2389H212.438V28.4009C212.438 26.6416 212.382 24.8548 212.382 23.0956V21.0889L216.833 21.0339V17.268L212.382 17.2954V11.7427H207.959V17.3229H203.508V21.0889H207.931Z"
    fill="black"/>
  <path
    d="M92.56 54.7959C92.483 54.8846 92.3676 54.7959 92.2906 54.7199C91.7006 54.2255 91.521 53.5791 91.598 52.8567C91.8032 51.1203 92.483 49.536 93.15 47.9516C93.4065 47.3306 94.0478 46.2026 93.9581 46.1265C93.9068 46.0758 93.5989 46.5067 93.4578 46.7222C92.188 48.5854 90.9566 50.4866 89.4431 52.1849C89.0326 52.6412 88.5837 53.0595 88.0963 53.427C87.6089 53.7819 87.0702 54.0481 86.5058 53.6932C85.9286 53.313 85.8516 52.6666 85.9286 52.0455C86.0312 51.3611 86.2364 50.702 86.4673 50.0429C86.9804 48.6234 87.6602 47.2672 88.263 45.873C88.3528 45.6575 88.6094 45.3534 88.4041 45.1886C88.2374 45.0618 87.9937 45.3787 87.7885 45.5055C87.2113 45.8984 86.6725 46.3546 86.121 46.7729C85.9286 46.9377 85.9799 47.1531 85.8645 47.1278C85.6208 47.0771 85.9029 46.7476 86.044 46.6208C86.711 45.9998 87.4678 45.4928 88.1989 44.9478C88.3272 44.8464 88.4939 44.821 88.6222 44.8971C88.7633 44.9858 88.7376 45.1632 88.712 45.3027C88.6094 45.873 88.3272 46.38 88.0963 46.887C87.4421 48.3699 86.7495 49.8275 86.3391 51.3991C86.2108 51.8808 86.1851 52.3624 86.2493 52.844C86.3519 53.5284 86.8521 53.7946 87.5063 53.5158C87.9809 53.313 88.3785 52.9961 88.7376 52.6412C90.0203 51.3611 91.0464 49.8908 92.0597 48.4079C92.7652 47.3686 93.445 46.3293 94.1505 45.3027C94.2916 45.1125 94.4455 44.707 94.7405 44.8717C94.9842 45.0238 94.702 45.328 94.5994 45.5308C93.7657 47.2545 92.9063 48.9656 92.3163 50.7907C92.0854 51.5005 91.8802 52.2356 91.8545 52.9961C91.8417 53.6172 91.9058 54.1748 92.4317 54.5804C92.4958 54.6311 92.6754 54.6818 92.56 54.7959ZM97.2789 56.8872C97.2019 56.8619 97.2532 56.6591 97.2917 56.5323C97.7022 55.417 98.1126 54.2889 98.5102 53.1609C98.5872 52.9327 98.7539 52.6666 98.3948 52.4384C98.087 52.299 98.4076 52.1469 98.4589 52.1976C98.8181 52.6412 99.1131 51.6653 99.4209 50.9809C99.639 50.4866 99.8827 49.9542 100.088 49.4219C100.306 48.9022 100.498 48.3699 100.704 47.8376C100.832 47.5207 100.947 47.2038 101.076 46.8997C101.101 46.8109 101.114 46.6462 101.242 46.6969C101.332 46.7222 101.319 46.8743 101.268 46.9757C100.742 48.3065 100.293 49.6627 99.6903 50.9555C99.4979 51.3611 99.344 51.7667 99.1516 52.1596C98.9848 52.4891 99.0874 52.6412 99.4081 52.7806C100.986 53.4397 102.858 52.4638 104.103 50.9175C105.539 49.1557 106.45 46.6081 105.475 45.0872C103.782 42.4382 97.9715 46.4053 97.3302 49.8908C97.3302 49.9669 97.3943 50.0936 97.2917 50.0936C97.1634 50.1063 97.125 49.9796 97.1378 49.8782C97.5867 47.0391 101.306 43.6676 104 43.9211C107.476 44.3394 106.565 49.3839 103.205 52.1596C102.204 53.0468 100.46 53.5918 99.3568 52.9708C98.9079 52.768 98.8181 52.9074 98.6898 53.2876C98.305 54.3903 97.8946 55.493 97.4841 56.5957C97.4456 56.7098 97.5098 56.9379 97.2789 56.8872ZM116.414 55.417C116.298 55.3916 116.311 55.2395 116.337 55.1508C116.478 54.6185 116.632 54.0988 116.773 53.5791C117.619 50.4992 118.068 49.7895 119.377 46.8743C119.428 46.7476 119.492 46.6081 119.543 46.4687C119.659 46.2406 119.62 46.1772 119.338 46.2279C118.03 46.4814 116.721 46.7349 115.503 47.3052C115.4 47.3559 115.259 47.5207 115.182 47.3813C115.105 47.2545 115.323 47.1912 115.426 47.1405C116.375 46.6588 117.401 46.418 118.44 46.2026C118.787 46.1265 119.146 46.0378 119.492 45.9744C119.684 45.9364 119.851 45.873 119.915 45.6575C119.954 45.5435 119.979 45.3027 120.159 45.366C120.326 45.4167 120.133 45.5815 120.133 45.6829C120.146 45.8984 120.326 45.8223 120.428 45.8096C120.864 45.7716 121.313 45.7463 121.749 45.6702C122.904 45.4548 124.071 45.366 125.226 45.2266C125.328 45.2139 125.431 45.2266 125.533 45.2646C125.597 45.29 125.739 45.2773 125.7 45.4041C125.662 45.5055 125.559 45.4421 125.482 45.4294C125.444 45.4167 125.392 45.4167 125.354 45.4041C124.507 45.4928 123.661 45.5815 122.827 45.6956C122.045 45.797 121.275 45.9364 120.505 46.0251C120.133 46.0631 119.915 46.2026 119.774 46.5194C118.197 50.0683 117.491 51.4118 116.542 55.1888C116.516 55.2775 116.58 55.4423 116.414 55.417ZM125.211 54.4157C123.621 54.2255 123.057 52.8694 123.223 51.6653C123.518 49.3839 124.788 47.6728 126.712 46.418C127.046 46.2026 127.405 46.1012 127.79 46.0505C128.097 45.9998 128.444 46.1265 128.418 46.2913C128.418 46.3546 128.303 46.3673 128.251 46.3546C127.533 46.2026 126.956 46.5194 126.443 46.9123C125.045 48.0023 124.019 49.3332 123.595 51.0696C123.467 51.6146 123.428 52.1849 123.582 52.7046C124.006 54.1368 125.045 54.365 126.366 54.0735C127.546 53.82 128.482 53.0975 129.316 52.261C130.56 51.0189 131.496 49.5993 131.843 47.8249C132.138 46.2913 131.201 44.6943 129.675 44.2887C128.726 44.0352 127.943 44.4788 127.187 44.9858C127.097 45.0618 126.994 45.1886 126.93 45.1252C126.789 44.9858 126.93 44.8844 127.033 44.8084C127.584 44.3774 128.174 44.0986 128.88 43.9972C130.624 43.7437 132.099 45.4421 132.138 47.0644C132.074 48.8769 131.33 50.2204 130.368 51.4371C129.521 52.5145 128.508 53.4144 127.251 54.0101C126.609 54.3269 125.917 54.5044 125.211 54.4157ZM142.025 53.8073C141.845 53.6679 141.909 53.5665 141.986 53.4651C142.332 52.9581 142.666 52.4384 143.025 51.9441C144.32 50.1697 145.616 48.3952 146.899 46.6081C146.976 46.5194 147.091 46.342 147.065 46.2913C146.937 46.1392 146.796 46.3039 146.668 46.3293C145.796 46.5574 144.923 46.7349 144.038 46.4434C143.91 46.4053 143.679 46.38 143.756 46.1899C143.807 46.0505 143.974 46.2026 144.09 46.2406C145.013 46.4814 145.885 46.3039 146.77 46.0378C146.988 45.9617 147.271 45.6956 147.463 45.9744C147.617 46.2026 147.373 46.456 147.232 46.6462C145.911 48.484 144.577 50.3091 143.243 52.1342L142.204 53.5791C142.153 53.6552 142.089 53.7312 142.025 53.8073ZM151.63 53.6172C150.566 53.5665 149.758 52.7046 149.681 51.6273V51.0316C149.706 49.029 150.463 47.3686 152.015 46.0758C153.003 45.252 153.99 45.328 154.85 46.2026C155.286 46.6588 155.376 47.2419 155.35 47.7615C155.247 49.536 154.863 51.2344 153.631 52.6159C153.105 53.1989 152.477 53.6552 151.63 53.6172ZM153.054 52.768C154.478 51.5005 154.914 49.8148 155.029 48.0023C155.029 47.8756 155.017 47.7362 155.029 47.5968C155.106 46.6335 154.504 46.1392 153.695 45.835C153.131 45.6322 152.708 45.9871 152.272 46.2406C152.156 46.3166 152.054 46.4053 151.951 46.4941C150.579 47.7615 149.989 49.3712 149.95 51.1837C149.937 51.678 150.001 52.2103 150.361 52.6412C151.053 53.5031 152.156 53.5665 153.054 52.768ZM161.788 46.7729C161.493 46.7476 161.339 46.5701 161.339 46.2786C161.326 45.9364 161.711 45.5181 162.006 45.5688C162.224 45.6068 162.429 45.7082 162.339 45.9998C162.314 46.5321 162.134 46.7983 161.788 46.7729ZM161.839 46.5448C162.121 46.4687 162.083 46.2026 162.121 45.9871C162.147 45.8477 162.108 45.7843 161.955 45.797C161.724 45.873 161.57 46.0378 161.557 46.2913C161.557 46.456 161.672 46.5828 161.839 46.5448ZM158.966 52.1723C158.876 52.0962 158.966 52.0202 159.017 51.9568C159.517 51.3357 160.018 50.702 160.531 50.081C161.621 48.7755 162.801 47.5587 163.955 46.3166C164.02 46.2406 164.071 46.1392 164.199 46.1392C164.225 46.1392 164.25 46.1899 164.276 46.2279C164.263 46.38 164.135 46.4814 164.045 46.5828C163.417 47.2799 162.788 47.9643 162.147 48.6487C161.146 49.7134 160.21 50.8414 159.287 51.9695L159.171 52.1216C159.107 52.1723 159.043 52.261 158.966 52.1723ZM161.557 51.9821C161.275 51.9821 161.121 51.8174 161.095 51.5766C161.069 51.3104 161.531 50.9428 161.852 50.9175C162.16 50.9048 162.185 51.1076 162.185 51.3357C162.173 51.7033 161.903 51.9821 161.557 51.9821ZM161.595 51.754C161.813 51.7287 161.878 51.5512 161.955 51.3611C161.942 51.247 161.852 51.209 161.736 51.2217C161.518 51.2344 161.403 51.3738 161.39 51.5766C161.377 51.678 161.467 51.7667 161.595 51.754ZM175.202 54.4157C173.611 54.2255 173.047 52.8694 173.214 51.6653C173.509 49.3839 174.779 47.6728 176.703 46.418C177.036 46.2026 177.395 46.1012 177.78 46.0505C178.088 45.9998 178.434 46.1265 178.409 46.2913C178.409 46.3546 178.293 46.3673 178.242 46.3546C177.523 46.2026 176.946 46.5194 176.433 46.9123C175.035 48.0023 174.009 49.3332 173.586 51.0696C173.457 51.6146 173.419 52.1849 173.573 52.7046C173.996 54.1368 175.035 54.365 176.356 54.0735C177.536 53.82 178.473 53.0975 179.306 52.261C180.551 51.0189 181.487 49.5993 181.833 47.8249C182.128 46.2913 181.192 44.6943 179.666 44.2887C178.716 44.0352 177.934 44.4788 177.177 44.9858C177.087 45.0618 176.985 45.1886 176.921 45.1252C176.78 44.9858 176.921 44.8844 177.023 44.8084C177.575 44.3774 178.165 44.0986 178.87 43.9972C180.615 43.7437 182.09 45.4421 182.128 47.0644C182.064 48.8769 181.32 50.2204 180.358 51.4371C179.512 52.5145 178.498 53.4144 177.241 54.0101C176.6 54.3269 175.907 54.5044 175.202 54.4157ZM187.565 55.8225C187.501 55.8099 187.463 55.7592 187.488 55.6831C187.54 55.5057 187.604 55.3282 187.655 55.1508C188.143 53.7439 188.63 52.3244 189.348 51.0062C189.4 50.9175 189.502 50.7654 189.425 50.6767C189.361 50.6133 189.194 50.6893 189.079 50.74C188.425 50.9935 187.822 51.3484 187.155 51.5639C186.821 51.678 186.475 51.7413 186.129 51.716C185.911 51.7033 185.795 51.5639 185.744 51.4118C185.706 51.2217 185.744 51.133 185.847 51.1076C185.988 51.0823 185.975 51.171 185.975 51.285C185.988 51.678 186.783 51.4752 187.642 51.1583C188.45 50.8161 189.631 50.3471 189.951 49.9035C190.426 49.1177 191.388 47.8629 191.837 46.5701C192.093 45.8096 191.785 45.3407 191.003 45.328C189.092 45.3027 187.591 46.1519 186.514 47.4573C185.77 48.5093 186.27 49.2571 187.116 49.3078C187.386 49.3078 187.501 49.2698 187.488 49.4346C187.476 49.5233 187.347 49.5106 187.27 49.5106C186.219 49.5106 185.693 48.7501 186.052 47.8883C186.745 46.2279 189.053 44.9224 191.067 45.0745C192.093 45.1506 192.363 45.8984 192.055 46.7983C191.785 47.5461 191.324 48.1798 190.926 48.8515C190.734 49.1937 190.451 49.4979 190.362 49.8908C190.349 49.9415 190.387 49.9415 190.4 49.9415C190.888 49.9415 191.349 49.7641 191.837 49.6881C191.952 49.6754 192.157 49.6374 192.183 49.7388C192.221 49.9162 192.016 49.8782 191.901 49.9035C191.567 49.9796 191.247 50.0936 190.913 50.119C190.233 50.157 189.874 50.5499 189.579 51.1203C188.861 52.5018 188.335 53.9594 187.809 55.417C187.758 55.5437 187.783 55.6831 187.668 55.7718C187.642 55.7972 187.604 55.8225 187.565 55.8225ZM197.184 55.8225C197.12 55.8099 197.081 55.7592 197.107 55.6831C197.158 55.5057 197.223 55.3282 197.274 55.1508C197.761 53.7439 198.249 52.3244 198.967 51.0062C199.018 50.9175 199.121 50.7654 199.044 50.6767C198.98 50.6133 198.813 50.6893 198.698 50.74C198.043 50.9935 197.441 51.3484 196.774 51.5639C196.44 51.678 196.094 51.7413 195.748 51.716C195.529 51.7033 195.414 51.5639 195.363 51.4118C195.324 51.2217 195.363 51.133 195.465 51.1076C195.606 51.0823 195.594 51.171 195.594 51.285C195.606 51.678 196.402 51.4752 197.261 51.1583C198.069 50.8161 199.249 50.3471 199.57 49.9035C200.044 49.1177 201.006 47.8629 201.455 46.5701C201.712 45.8096 201.404 45.3407 200.622 45.328C198.71 45.3027 197.21 46.1519 196.132 47.4573C195.388 48.5093 195.889 49.2571 196.735 49.3078C197.005 49.3078 197.12 49.2698 197.107 49.4346C197.094 49.5233 196.966 49.5106 196.889 49.5106C195.837 49.5106 195.311 48.7501 195.671 47.8883C196.363 46.2279 198.672 44.9224 200.686 45.0745C201.712 45.1506 201.981 45.8984 201.673 46.7983C201.404 47.5461 200.942 48.1798 200.545 48.8515C200.352 49.1937 200.07 49.4979 199.98 49.8908C199.967 49.9415 200.006 49.9415 200.019 49.9415C200.506 49.9415 200.968 49.7641 201.455 49.6881C201.571 49.6754 201.776 49.6374 201.802 49.7388C201.84 49.9162 201.635 49.8782 201.519 49.9035C201.186 49.9796 200.865 50.0936 200.532 50.119C199.852 50.157 199.493 50.5499 199.198 51.1203C198.48 52.5018 197.954 53.9594 197.428 55.417C197.376 55.5437 197.402 55.6831 197.287 55.7718C197.261 55.7972 197.223 55.8225 197.184 55.8225Z"
    fill="black"/>
</svg>
